# xmcd
#
# Track frame offsets:
#	150
#	17980
#	38475
#	52025
#	68855
#	84029
#	95767
#	119309
#	142443
#	167850
#	192081
#	210716
#	231025
#	248543
#	258360
#	280128
#
# Disc length: 3998 seconds
#
# Revision: 0
# Processed by: cddbd v1.5.2PL0 Copyright (c) Steve Scherf et al.
# Submitted via: audiograbber 1.83.01
#
DISCID=e10f9c10
DTITLE=Various Artist - FULL MOON - CD 1 [CDC)
DYEAR=2005
DGENRE=Ballad
TTITLE0=THE NEVILLE BROTHERS - YELLOW MOON
TTITLE1=VAN MORRISON - MOONDANCE
TTITLE2=BLACK - FLY UP TO THE MOON 
TTITLE3=LINDA RONDSTADT - WHEN YOU WISH UPON A STAR
TTITLE4=NATALIE COLE - PAPER MOON
TTITLE5=FAIRGROUND ATTRACTION - THE MOON IS MINE
TTITLE6=CHRIS REA - WIRED TO THE MOON
TTITLE7=CIBO MATTO - MOONCHILD
TTITLE8=CASSANDRA WILSON - POLKA DOTS AND MOONBEAMS
TTITLE9=VANESSA WILLIAMS - SISTER MOON
TTITLE10=BELINDA CARLISLE - LA LUNA
TTITLE11=THE WALKABOUTS - FALLEN DOWN MOON
TTITLE12=PAUL WELLER - MOON ON YOUR PYJAMAS
TTITLE13=J.J. CALE - CAJUN MOON
TTITLE14=ALAN PARSONS PROJECT - CHILDREN OF THE MOON
TTITLE15=OTTMAR LIEBERT - NIGHTFLOWER-RED MOON OVER SANTA FE
EXTD=
EXTT0=
EXTT1=
EXTT2=
EXTT3=
EXTT4=
EXTT5=
EXTT6=
EXTT7=
EXTT8=
EXTT9=
EXTT10=
EXTT11=
EXTT12=
EXTT13=
EXTT14=
EXTT15=
PLAYORDER=
